<?xml version="1.0" standalone="no"?>
<!DOCTYPE svg PUBLIC "-//W3C//DTD SVG 20010904//EN"
 "http://www.w3.org/TR/2001/REC-SVG-20010904/DTD/svg10.dtd">
<svg version="1.0" xmlns="http://www.w3.org/2000/svg"
 width="1200.000000pt" height="1200.000000pt" viewBox="0 0 1200.000000 1200.000000"
 preserveAspectRatio="xMidYMid meet">

<g transform="translate(0.000000,1200.000000) scale(0.100000,-0.100000)"
fill="#000000" stroke="none">
<path d="M0 6000 l0 -6000 6000 0 6000 0 0 6000 0 6000 -6000 0 -6000 0 0
-6000z m6115 1480 c249 -65 422 -219 511 -458 14 -37 40 -83 59 -102 64 -68
66 -100 9 -160 -24 -25 -42 -62 -65 -133 -29 -91 -77 -182 -124 -238 -35 -42
-117 -109 -171 -140 -149 -85 -423 -131 -595 -99 -80 15 -191 74 -261 138
-260 241 -300 669 -90 974 73 107 210 202 335 234 76 20 289 11 392 -16z
m-1015 -1180 l0 -70 -1350 0 -1350 0 0 70 0 70 1350 0 1350 0 0 -70z m4500 0
l0 -70 -1350 0 -1350 0 0 70 0 70 1350 0 1350 0 0 -70z m-5700 -1080 l0 -500
-85 0 -85 0 0 500 0 500 85 0 85 0 0 -500z m428 -2 l2 -498 -85 0 -85 0 0 500
0 501 83 -3 82 -3 3 -497z m2006 188 c26 -11 69 -16 133 -16 l94 0 -3 -41 c-3
-43 -13 -54 -58 -63 -25 -5 -26 -8 -25 -78 0 -65 -3 -78 -30 -118 -47 -69
-124 -104 -239 -106 -90 -2 -105 -8 -106 -45 0 -32 29 -42 156 -50 151 -10
212 -28 254 -75 26 -30 30 -42 30 -92 0 -164 -197 -271 -427 -232 -102 17
-171 60 -197 122 -28 67 -12 118 48 157 l43 27 -23 28 c-42 49 -25 130 37 177
l22 17 -35 31 c-20 17 -43 46 -52 65 -21 44 -21 138 0 182 23 49 86 99 147
118 63 19 176 15 231 -8z m-2977 -14 c44 -23 83 -63 109 -112 17 -31 19 -64
22 -297 l3 -263 -48 0 c-58 0 -74 10 -88 49 l-10 30 -44 -30 c-128 -86 -301
-73 -358 27 -25 44 -31 130 -12 167 41 77 156 128 320 143 l79 7 0 44 c0 56
-23 107 -56 122 -47 21 -117 13 -178 -19 -68 -37 -97 -33 -127 17 l-22 36 24
19 c35 28 121 67 171 78 64 14 170 4 215 -18z m1636 0 c61 -27 105 -68 134
-126 27 -53 41 -152 29 -200 l-6 -26 -225 0 c-251 0 -236 5 -215 -72 13 -44
52 -93 91 -113 46 -24 145 -19 207 10 68 31 79 31 114 -2 34 -32 35 -43 6 -70
-61 -55 -194 -91 -297 -79 -75 8 -172 57 -211 106 -93 117 -112 299 -45 429
39 77 125 144 207 161 60 13 161 4 211 -18z m776 17 c34 -12 34 -8 12 -119
l-7 -35 -70 3 c-59 3 -74 0 -104 -20 -19 -13 -45 -41 -57 -63 -21 -38 -23 -51
-23 -247 l0 -208 -80 0 -80 0 0 345 0 345 58 0 c31 0 63 -4 71 -9 7 -5 16 -32
19 -60 2 -28 8 -51 13 -51 5 0 9 4 9 9 0 5 20 29 44 52 65 63 127 82 195 58z
m1370 0 c34 -12 34 -8 12 -119 l-7 -35 -70 3 c-59 3 -74 0 -104 -20 -19 -13
-45 -41 -57 -63 -21 -38 -23 -51 -23 -247 l0 -208 -80 0 -80 0 0 345 0 345 58
0 c31 0 63 -4 71 -9 7 -5 16 -32 19 -60 2 -28 8 -51 11 -51 4 0 14 13 23 28
31 52 110 100 169 101 14 1 40 -4 58 -10z m578 -14 c48 -20 89 -59 116 -110
21 -38 22 -56 25 -302 l3 -263 -48 0 c-58 0 -74 10 -88 49 l-10 30 -44 -30
c-130 -87 -309 -71 -362 33 -26 50 -25 133 1 175 40 66 140 109 294 126 l98
11 -5 57 c-8 92 -37 119 -126 119 -35 0 -65 -9 -107 -31 -70 -36 -94 -33 -125
17 l-22 37 24 18 c38 30 121 69 169 79 59 12 159 5 207 -15z m790 6 c26 -12
52 -35 69 -61 l27 -41 30 36 c56 69 159 99 257 75 61 -15 112 -55 143 -114 21
-39 22 -56 25 -308 l3 -268 -80 0 -81 0 0 223 c-1 246 -7 291 -45 325 -32 27
-108 30 -143 6 -48 -34 -52 -56 -52 -314 l0 -240 -85 0 -84 0 -3 261 -3 261
-28 24 c-39 34 -110 33 -157 -1 -19 -14 -37 -31 -42 -37 -4 -7 -8 -124 -8
-260 l0 -248 -80 0 -80 0 0 345 0 345 59 0 c51 0 62 -3 75 -22 9 -12 16 -31
16 -41 0 -16 6 -14 41 14 75 60 152 73 226 40z"/>
<path d="M5742 7374 c-160 -43 -298 -195 -348 -385 -20 -77 -22 -231 -5 -309
7 -30 33 -97 58 -147 67 -139 171 -226 309 -260 241 -60 487 133 544 425 19
96 9 251 -23 342 -62 175 -199 306 -355 339 -68 14 -114 13 -180 -5z m174
-115 c41 -11 45 -14 39 -36 -5 -21 -113 -273 -121 -282 -4 -4 -144 276 -144
289 0 13 87 38 138 39 24 1 63 -4 88 -10z m-176 -369 c0 -11 -82 -20 -181 -20
l-89 0 0 28 c0 67 43 170 102 244 l32 39 68 -142 c37 -78 68 -145 68 -149z
m359 238 c43 -57 75 -129 85 -194 l7 -41 -137 -6 c-76 -4 -139 -5 -141 -3 -2
2 19 52 46 112 27 60 56 126 64 147 9 20 21 37 26 37 6 0 28 -24 50 -52z m91
-360 c0 -38 -27 -127 -55 -182 -26 -50 -73 -112 -80 -105 -2 2 -35 69 -74 149
l-71 145 108 6 c59 3 122 6 140 7 27 2 32 -1 32 -20z m-440 -4 c0 -6 -45 -109
-100 -231 -35 -76 -44 -75 -99 8 -38 56 -62 116 -76 186 l-6 32 103 4 c57 1
120 4 141 5 20 1 37 -1 37 -4z m219 -336 c1 -20 -75 -48 -131 -48 -45 0 -126
19 -133 31 -6 9 19 72 85 214 l42 90 68 -135 c38 -74 69 -142 69 -152z"/>
<path d="M6133 5291 c-44 -28 -61 -99 -34 -150 37 -69 195 -64 222 6 12 32 11
90 -1 114 -26 48 -129 65 -187 30z"/>
<path d="M6074 4745 c-28 -28 -33 -85 -9 -109 22 -22 81 -36 150 -36 115 0
175 33 175 96 0 46 -38 60 -179 67 -110 6 -114 5 -137 -18z"/>
<path d="M3183 4996 c-28 -7 -63 -20 -76 -29 -49 -32 -43 -118 10 -138 46 -18
119 -5 166 28 41 28 42 31 45 91 l3 62 -48 -1 c-26 0 -71 -6 -100 -13z"/>
<path d="M4800 5289 c-47 -19 -79 -60 -94 -121 l-6 -28 160 0 160 0 -7 33
c-15 83 -66 127 -143 126 -25 0 -56 -5 -70 -10z"/>
<path d="M7563 5000 c-93 -19 -134 -63 -116 -125 21 -71 156 -73 230 -3 19 18
23 32 23 80 l0 58 -47 -1 c-27 -1 -67 -5 -90 -9z"/>
</g>
</svg>
